<svg xmlns="http://www.w3.org/2000/svg" width="1200" height="630" viewBox="0 0 1200 630">
  <defs>
    <linearGradient id="g" x1="0" y1="0" x2="1" y2="1">
      <stop offset="0" stop-color="#0b1220"/>
      <stop offset="1" stop-color="#111827"/>
    </linearGradient>
    <linearGradient id="a" x1="0" y1="0" x2="1" y2="0">
      <stop offset="0" stop-color="#8b5cf6"/>
      <stop offset="1" stop-color="#ec4899"/>
    </linearGradient>
  </defs>
  <rect width="1200" height="630" fill="url(#g)"/>
  <rect x="48" y="48" width="1104" height="534" rx="24" fill="#0f172a" stroke="#1f2937"/>
  <g>
    <rect x="80" y="120" width="520" height="20" rx="10" fill="#1f2937"/>
    <rect x="80" y="160" width="420" height="14" rx="7" fill="#1f2937"/>
    <rect x="80" y="190" width="460" height="14" rx="7" fill="#1f2937"/>
    <rect x="80" y="220" width="380" height="14" rx="7" fill="#1f2937"/>
    <rect x="80" y="260" width="520" height="220" rx="16" fill="#0b1b30"/>
    <path d="M100 420 C180 340 300 420 360 370 C430 320 540 420 600 390" stroke="#22d3ee" stroke-width="6" fill="none"/>
    <path d="M100 435 C180 370 300 440 360 410 C430 360 540 440 600 410" stroke="#8b5cf6" stroke-width="6" fill="none"/>
  </g>
  <g>
    <rect x="680" y="160" width="440" height="80" rx="16" fill="#0b1b30"/>
    <rect x="700" y="180" width="220" height="14" rx="7" fill="#1f2937"/>
    <rect x="700" y="205" width="180" height="12" rx="6" fill="#1f2937"/>
    <rect x="680" y="260" width="440" height="220" rx="16" fill="#0b1b30"/>
    <rect x="700" y="280" width="200" height="12" rx="6" fill="#1f2937"/>
    <rect x="700" y="304" width="260" height="12" rx="6" fill="#1f2937"/>
    <rect x="700" y="328" width="180" height="12" rx="6" fill="#1f2937"/>
  </g>
  <g font-family="Inter, Arial, Helvetica, sans-serif" fill="#e5e7eb">
    <text x="80" y="100" font-size="44" font-weight="800">YouTube Growth AI</text>
    <text x="80" y="140" font-size="20" fill="#9ca3af">Free AI tools for YouTube SEO & channel growth</text>
  </g>
  <g>
    <rect x="860" y="440" width="240" height="56" rx="12" fill="url(#a)"/>
    <text x="980" y="477" text-anchor="middle" font-family="Inter, Arial, Helvetica, sans-serif" font-size="20" font-weight="700" fill="#ffffff">Get Started Free</text>
  </g>
</svg>
