<svg xmlns="http://www.w3.org/2000/svg" width="1200" height="680" viewBox="0 0 1200 680" fill="none">
  <rect width="1200" height="680" rx="16" fill="#0B1220"/>
  <rect x="24" y="24" width="1152" height="56" rx="10" fill="#0F172A"/>
  <circle cx="52" cy="52" r="8" fill="#EF4444"/>
  <circle cx="76" cy="52" r="8" fill="#F59E0B"/>
  <circle cx="100" cy="52" r="8" fill="#22C55E"/>

  <rect x="24" y="100" width="280" height="520" rx="12" fill="#0F172A"/>
  <rect x="324" y="100" width="852" height="520" rx="12" fill="#0F172A"/>

  <rect x="44" y="120" width="240" height="16" rx="8" fill="#1F2937"/>
  <rect x="44" y="152" width="180" height="12" rx="6" fill="#1F2937"/>
  <rect x="44" y="184" width="220" height="12" rx="6" fill="#1F2937"/>
  <rect x="44" y="216" width="200" height="12" rx="6" fill="#1F2937"/>
  <rect x="44" y="248" width="170" height="12" rx="6" fill="#1F2937"/>

  <rect x="344" y="120" width="400" height="18" rx="9" fill="#1F2937"/>
  <rect x="344" y="154" width="300" height="12" rx="6" fill="#1F2937"/>

  <rect x="344" y="196" width="812" height="180" rx="12" fill="#0B1B30"/>
  <path d="M364 350 C420 280 520 360 600 300 C700 230 820 360 900 320 C980 280 1100 340 1136 300" stroke="#22D3EE" stroke-width="4" fill="none"/>
  <path d="M364 360 C420 320 520 370 600 340 C700 300 820 380 900 340 C980 320 1100 360 1136 340" stroke="#8B5CF6" stroke-width="4" fill="none"/>

  <rect x="344" y="404" width="260" height="196" rx="12" fill="#0B1B30"/>
  <rect x="624" y="404" width="260" height="196" rx="12" fill="#0B1B30"/>
  <rect x="904" y="404" width="252" height="196" rx="12" fill="#0B1B30"/>

  <rect x="364" y="424" width="140" height="12" rx="6" fill="#1F2937"/>
  <rect x="364" y="446" width="100" height="10" rx="5" fill="#1F2937"/>

  <rect x="644" y="424" width="140" height="12" rx="6" fill="#1F2937"/>
  <rect x="644" y="446" width="100" height="10" rx="5" fill="#1F2937"/>

  <rect x="924" y="424" width="140" height="12" rx="6" fill="#1F2937"/>
  <rect x="924" y="446" width="100" height="10" rx="5" fill="#1F2937"/>
</svg>
